<mxfile host="app.diagrams.net" agent="Mozilla/5.0 (Windows NT 10.0; Win64; x64; rv:140.0) Gecko/20100101 Firefox/140.0" version="28.0.5">
  <diagram name="Pagina-1" id="VtQWf4U27ft-WzRDXPcL">
    <mxGraphModel dx="2135" dy="892" grid="1" gridSize="10" guides="1" tooltips="1" connect="1" arrows="1" fold="1" page="1" pageScale="1" pageWidth="827" pageHeight="1169" math="0" shadow="0">
      <root>
        <mxCell id="0" />
        <mxCell id="1" parent="0" />
        <mxCell id="sYXojlJHBc_Nb5jjLSPj-1" value="&lt;p style=&quot;margin:0px;margin-top:4px;text-align:center;&quot;&gt;&lt;b&gt;Login Page&lt;/b&gt;&lt;/p&gt;&lt;hr size=&quot;1&quot; style=&quot;border-style:solid;&quot;&gt;&lt;div style=&quot;height:2px;&quot;&gt;&lt;/div&gt;" style="verticalAlign=top;align=left;overflow=fill;html=1;whiteSpace=wrap;" vertex="1" parent="1">
          <mxGeometry x="660" y="440" width="250" height="360" as="geometry" />
        </mxCell>
        <mxCell id="sYXojlJHBc_Nb5jjLSPj-2" value="&lt;p style=&quot;margin:0px;margin-top:4px;text-align:center;&quot;&gt;&lt;b&gt;Home Page&lt;/b&gt;&lt;/p&gt;&lt;hr size=&quot;1&quot; style=&quot;border-style:solid;&quot;&gt;&lt;div style=&quot;height:2px;&quot;&gt;&lt;/div&gt;" style="verticalAlign=top;align=left;overflow=fill;html=1;whiteSpace=wrap;" vertex="1" parent="1">
          <mxGeometry x="970" y="440" width="240" height="450" as="geometry" />
        </mxCell>
        <mxCell id="sYXojlJHBc_Nb5jjLSPj-3" value="&lt;p style=&quot;margin:0px;margin-top:4px;text-align:center;&quot;&gt;&lt;b&gt;Registration Page&lt;/b&gt;&lt;/p&gt;&lt;hr size=&quot;1&quot; style=&quot;border-style:solid;&quot;&gt;&lt;div style=&quot;height:2px;&quot;&gt;&lt;/div&gt;" style="verticalAlign=top;align=left;overflow=fill;html=1;whiteSpace=wrap;" vertex="1" parent="1">
          <mxGeometry x="670" y="860" width="240" height="200" as="geometry" />
        </mxCell>
        <mxCell id="sYXojlJHBc_Nb5jjLSPj-4" value="&lt;p style=&quot;margin:0px;margin-top:4px;text-align:center;&quot;&gt;&lt;b&gt;Playlist Page&lt;/b&gt;&lt;/p&gt;&lt;hr size=&quot;1&quot; style=&quot;border-style:solid;&quot;&gt;&lt;div style=&quot;height:2px;&quot;&gt;&lt;/div&gt;" style="verticalAlign=top;align=left;overflow=fill;html=1;whiteSpace=wrap;" vertex="1" parent="1">
          <mxGeometry x="1270" y="440" width="220" height="320" as="geometry" />
        </mxCell>
        <mxCell id="sYXojlJHBc_Nb5jjLSPj-5" value="&lt;p style=&quot;margin:0px;margin-top:4px;text-align:center;&quot;&gt;&lt;b&gt;Song Page&lt;/b&gt;&lt;/p&gt;&lt;hr size=&quot;1&quot; style=&quot;border-style:solid;&quot;&gt;&lt;div style=&quot;height:2px;&quot;&gt;&lt;/div&gt;" style="verticalAlign=top;align=left;overflow=fill;html=1;whiteSpace=wrap;" vertex="1" parent="1">
          <mxGeometry x="1270" y="850" width="220" height="160" as="geometry" />
        </mxCell>
        <mxCell id="sYXojlJHBc_Nb5jjLSPj-6" value="&lt;div&gt;&amp;lt;&amp;lt;Form&amp;gt;&amp;gt;&lt;/div&gt;&lt;div&gt;Login Form&lt;/div&gt;" style="rounded=1;whiteSpace=wrap;html=1;" vertex="1" parent="1">
          <mxGeometry x="690" y="490" width="190" height="100" as="geometry" />
        </mxCell>
        <mxCell id="sYXojlJHBc_Nb5jjLSPj-7" value="GoRegistrationPage" style="shape=hexagon;perimeter=hexagonPerimeter2;whiteSpace=wrap;html=1;fixedSize=1;" vertex="1" parent="1">
          <mxGeometry x="680" y="650" width="220" height="80" as="geometry" />
        </mxCell>
        <mxCell id="sYXojlJHBc_Nb5jjLSPj-8" value="createUser" style="shape=hexagon;perimeter=hexagonPerimeter2;whiteSpace=wrap;html=1;fixedSize=1;" vertex="1" parent="1">
          <mxGeometry x="410" y="780" width="200" height="80" as="geometry" />
        </mxCell>
        <mxCell id="sYXojlJHBc_Nb5jjLSPj-9" value="&lt;div&gt;&amp;lt;&amp;lt;Form&amp;gt;&amp;gt;&lt;/div&gt;&lt;div&gt;Registration Form&lt;/div&gt;" style="rounded=1;whiteSpace=wrap;html=1;" vertex="1" parent="1">
          <mxGeometry x="700" y="910" width="180" height="100" as="geometry" />
        </mxCell>
        <mxCell id="sYXojlJHBc_Nb5jjLSPj-10" value="&lt;div&gt;&amp;lt;&amp;lt;List&amp;gt;&amp;gt;&lt;/div&gt;&lt;div&gt;Playlist&lt;/div&gt;" style="rounded=1;whiteSpace=wrap;html=1;" vertex="1" parent="1">
          <mxGeometry x="995" y="490" width="190" height="100" as="geometry" />
        </mxCell>
        <mxCell id="sYXojlJHBc_Nb5jjLSPj-11" value="&lt;div&gt;&amp;lt;&amp;lt;Form&amp;gt;&amp;gt;&lt;/div&gt;&lt;div&gt;CreatePlaylist&lt;/div&gt;" style="rounded=1;whiteSpace=wrap;html=1;" vertex="1" parent="1">
          <mxGeometry x="995" y="620" width="190" height="100" as="geometry" />
        </mxCell>
        <mxCell id="sYXojlJHBc_Nb5jjLSPj-12" value="&lt;div&gt;&amp;lt;&amp;lt;Form&amp;gt;&amp;gt;&lt;/div&gt;&lt;div&gt;CreateSong&lt;/div&gt;" style="rounded=1;whiteSpace=wrap;html=1;" vertex="1" parent="1">
          <mxGeometry x="995" y="760" width="190" height="100" as="geometry" />
        </mxCell>
        <mxCell id="sYXojlJHBc_Nb5jjLSPj-13" value="&lt;div&gt;&amp;lt;&amp;lt;Form&amp;gt;&amp;gt;&lt;/div&gt;&lt;div&gt;AddSong&lt;/div&gt;" style="rounded=1;whiteSpace=wrap;html=1;" vertex="1" parent="1">
          <mxGeometry x="1285" y="490" width="190" height="100" as="geometry" />
        </mxCell>
        <mxCell id="sYXojlJHBc_Nb5jjLSPj-14" value="&lt;div&gt;&lt;div&gt;&amp;lt;&amp;lt;List&amp;gt;&amp;gt;&lt;/div&gt;&lt;div&gt;Songs&lt;/div&gt;&lt;/div&gt;" style="rounded=1;whiteSpace=wrap;html=1;" vertex="1" parent="1">
          <mxGeometry x="1285" y="620" width="190" height="100" as="geometry" />
        </mxCell>
        <mxCell id="sYXojlJHBc_Nb5jjLSPj-15" value="&lt;div&gt;&amp;lt;&amp;lt;Info&amp;gt;&amp;gt;&lt;/div&gt;&lt;div&gt;SongInfo&lt;/div&gt;" style="rounded=1;whiteSpace=wrap;html=1;" vertex="1" parent="1">
          <mxGeometry x="1285" y="890" width="190" height="100" as="geometry" />
        </mxCell>
        <mxCell id="sYXojlJHBc_Nb5jjLSPj-16" value="" style="html=1;verticalAlign=bottom;startArrow=oval;startFill=1;endArrow=block;startSize=8;curved=0;rounded=0;entryX=0.5;entryY=1;entryDx=0;entryDy=0;exitX=0;exitY=0.25;exitDx=0;exitDy=0;" edge="1" parent="1" source="sYXojlJHBc_Nb5jjLSPj-9" target="sYXojlJHBc_Nb5jjLSPj-8">
          <mxGeometry width="60" relative="1" as="geometry">
            <mxPoint x="540" y="970" as="sourcePoint" />
            <mxPoint x="920" y="850" as="targetPoint" />
            <Array as="points">
              <mxPoint x="510" y="935" />
            </Array>
          </mxGeometry>
        </mxCell>
        <mxCell id="sYXojlJHBc_Nb5jjLSPj-17" value="" style="html=1;verticalAlign=bottom;startArrow=oval;startFill=1;endArrow=block;startSize=8;curved=0;rounded=0;exitX=0.5;exitY=0;exitDx=0;exitDy=0;entryX=0;entryY=0.5;entryDx=0;entryDy=0;" edge="1" parent="1" source="sYXojlJHBc_Nb5jjLSPj-8" target="sYXojlJHBc_Nb5jjLSPj-1">
          <mxGeometry width="60" relative="1" as="geometry">
            <mxPoint x="510" y="630" as="sourcePoint" />
            <mxPoint x="570" y="630" as="targetPoint" />
            <Array as="points">
              <mxPoint x="510" y="620" />
            </Array>
          </mxGeometry>
        </mxCell>
        <mxCell id="sYXojlJHBc_Nb5jjLSPj-18" value="submit" style="html=1;verticalAlign=bottom;startArrow=oval;startFill=1;endArrow=block;startSize=8;curved=0;rounded=0;entryX=0;entryY=0.25;entryDx=0;entryDy=0;" edge="1" parent="1" target="sYXojlJHBc_Nb5jjLSPj-2">
          <mxGeometry width="60" relative="1" as="geometry">
            <mxPoint x="880" y="560" as="sourcePoint" />
            <mxPoint x="940" y="560" as="targetPoint" />
          </mxGeometry>
        </mxCell>
        <mxCell id="sYXojlJHBc_Nb5jjLSPj-19" value="select playlist" style="html=1;verticalAlign=bottom;startArrow=oval;startFill=1;endArrow=block;startSize=8;curved=0;rounded=0;exitX=1;exitY=0.5;exitDx=0;exitDy=0;entryX=0.02;entryY=0.311;entryDx=0;entryDy=0;entryPerimeter=0;" edge="1" parent="1" source="sYXojlJHBc_Nb5jjLSPj-10" target="sYXojlJHBc_Nb5jjLSPj-4">
          <mxGeometry width="60" relative="1" as="geometry">
            <mxPoint x="1220" y="540" as="sourcePoint" />
            <mxPoint x="1280" y="540" as="targetPoint" />
          </mxGeometry>
        </mxCell>
        <mxCell id="sYXojlJHBc_Nb5jjLSPj-20" value="submit" style="html=1;verticalAlign=bottom;startArrow=oval;startFill=1;endArrow=block;startSize=8;curved=0;rounded=0;exitX=1;exitY=0.75;exitDx=0;exitDy=0;" edge="1" parent="1" source="sYXojlJHBc_Nb5jjLSPj-11">
          <mxGeometry width="60" relative="1" as="geometry">
            <mxPoint x="1610" y="700" as="sourcePoint" />
            <mxPoint x="1170" y="1050" as="targetPoint" />
            <Array as="points">
              <mxPoint x="1230" y="695" />
              <mxPoint x="1230" y="1050" />
            </Array>
          </mxGeometry>
        </mxCell>
        <mxCell id="sYXojlJHBc_Nb5jjLSPj-21" value="submit" style="html=1;verticalAlign=bottom;startArrow=oval;startFill=1;endArrow=block;startSize=8;curved=0;rounded=0;" edge="1" parent="1">
          <mxGeometry width="60" relative="1" as="geometry">
            <mxPoint x="1150" y="860" as="sourcePoint" />
            <mxPoint x="1150" y="930" as="targetPoint" />
          </mxGeometry>
        </mxCell>
        <mxCell id="sYXojlJHBc_Nb5jjLSPj-22" value="createSong" style="shape=hexagon;perimeter=hexagonPerimeter2;whiteSpace=wrap;html=1;fixedSize=1;" vertex="1" parent="1">
          <mxGeometry x="1010" y="930" width="170" height="80" as="geometry" />
        </mxCell>
        <mxCell id="sYXojlJHBc_Nb5jjLSPj-23" value="createPlaylist" style="shape=hexagon;perimeter=hexagonPerimeter2;whiteSpace=wrap;html=1;fixedSize=1;" vertex="1" parent="1">
          <mxGeometry x="1010" y="1035" width="170" height="80" as="geometry" />
        </mxCell>
        <mxCell id="sYXojlJHBc_Nb5jjLSPj-24" value="addSong" style="shape=hexagon;perimeter=hexagonPerimeter2;whiteSpace=wrap;html=1;fixedSize=1;" vertex="1" parent="1">
          <mxGeometry x="1310" y="330" width="175" height="80" as="geometry" />
        </mxCell>
        <mxCell id="sYXojlJHBc_Nb5jjLSPj-25" value="" style="html=1;verticalAlign=bottom;startArrow=oval;startFill=1;endArrow=block;startSize=8;curved=0;rounded=0;exitX=0;exitY=0.75;exitDx=0;exitDy=0;entryX=0.135;entryY=0.997;entryDx=0;entryDy=0;entryPerimeter=0;" edge="1" parent="1" source="sYXojlJHBc_Nb5jjLSPj-22" target="sYXojlJHBc_Nb5jjLSPj-2">
          <mxGeometry width="60" relative="1" as="geometry">
            <mxPoint x="980" y="920" as="sourcePoint" />
            <mxPoint x="1040" y="920" as="targetPoint" />
            <Array as="points">
              <mxPoint x="1000" y="988" />
            </Array>
          </mxGeometry>
        </mxCell>
        <mxCell id="sYXojlJHBc_Nb5jjLSPj-26" value="" style="html=1;verticalAlign=bottom;startArrow=oval;startFill=1;endArrow=block;startSize=8;curved=0;rounded=0;exitX=0;exitY=0.75;exitDx=0;exitDy=0;entryX=0.048;entryY=0.991;entryDx=0;entryDy=0;entryPerimeter=0;" edge="1" parent="1" source="sYXojlJHBc_Nb5jjLSPj-23" target="sYXojlJHBc_Nb5jjLSPj-2">
          <mxGeometry width="60" relative="1" as="geometry">
            <mxPoint x="1030" y="1100" as="sourcePoint" />
            <mxPoint x="1090" y="1100" as="targetPoint" />
            <Array as="points">
              <mxPoint x="984" y="1093" />
            </Array>
          </mxGeometry>
        </mxCell>
        <mxCell id="sYXojlJHBc_Nb5jjLSPj-27" value="select song" style="html=1;verticalAlign=bottom;startArrow=oval;startFill=1;endArrow=block;startSize=8;curved=0;rounded=0;exitX=0.5;exitY=1;exitDx=0;exitDy=0;entryX=0.5;entryY=0;entryDx=0;entryDy=0;" edge="1" parent="1" source="sYXojlJHBc_Nb5jjLSPj-14" target="sYXojlJHBc_Nb5jjLSPj-5">
          <mxGeometry width="60" relative="1" as="geometry">
            <mxPoint x="1470" y="560" as="sourcePoint" />
            <mxPoint x="1530" y="560" as="targetPoint" />
          </mxGeometry>
        </mxCell>
        <mxCell id="sYXojlJHBc_Nb5jjLSPj-28" value="submit" style="html=1;verticalAlign=bottom;startArrow=oval;startFill=1;endArrow=block;startSize=8;curved=0;rounded=0;exitX=1;exitY=0.5;exitDx=0;exitDy=0;entryX=1;entryY=0.75;entryDx=0;entryDy=0;" edge="1" parent="1" source="sYXojlJHBc_Nb5jjLSPj-13" target="sYXojlJHBc_Nb5jjLSPj-24">
          <mxGeometry width="60" relative="1" as="geometry">
            <mxPoint x="1540" y="690" as="sourcePoint" />
            <mxPoint x="1600" y="690" as="targetPoint" />
            <Array as="points">
              <mxPoint x="1510" y="540" />
              <mxPoint x="1510" y="388" />
            </Array>
          </mxGeometry>
        </mxCell>
        <mxCell id="sYXojlJHBc_Nb5jjLSPj-29" value="submit" style="text;html=1;align=center;verticalAlign=middle;resizable=0;points=[];autosize=1;strokeColor=none;fillColor=none;" vertex="1" parent="1">
          <mxGeometry x="460" y="928" width="60" height="30" as="geometry" />
        </mxCell>
      </root>
    </mxGraphModel>
  </diagram>
</mxfile>
